<svg xmlns="http://www.w3.org/2000/svg" viewBox="0 0 512 512" width="512" height="512" version="1.1">
  <g stroke="none" stroke-width="1" fill="none" fill-rule="evenodd">
    <g fill="#fff">
      <path d="M 267.130415 322.735031 C 267.130428 322.750889 267.130435 322.766748 267.130435 322.782609 C 267.130435 353.518456 242.161332 378.434783 211.322395 378.434783 L 200.347826 378.434783 L 200.347826 356.173913 L 211.440961 356.173913 C 229.928306 356.173913 244.869565 341.224116 244.869565 322.782609 C 244.869565 304.212529 229.903068 289.391304 211.440961 289.391304 L 122.472083 289.391304 C 103.984739 289.391304 89.043478 304.341101 89.043478 311.652174 L 77.913043 311.652174 L 66.782609 311.652174 L 66.782609 55.731843 C 66.782609 24.951996 91.484651 0.0 122.434783 0.0 C 153.170629 0.0 178.086957 24.933488 178.086957 55.731843 L 178.086957 122.351204 C 187.361087 115.413099 198.904023 111.304348 211.478261 111.304348 C 229.644001 111.304348 245.7769 120.073286 255.934346 133.541821 C 266.047497 120.038621 282.188462 111.304348 300.521739 111.304348 C 313.050223 111.304348 324.611778 115.475326 333.913043 122.482345 L 333.913043 77.913043 C 333.913043 47.177197 358.615087 22.26087 389.565217 22.26087 C 420.301065 22.26087 445.217391 47.306327 445.217391 77.913043 L 445.217391 311.652174 L 422.956522 311.652174 L 422.956522 289.391304 L 422.956522 311.652174 L 422.956522 77.873981 C 422.956522 59.553371 408.006725 44.521739 389.565217 44.521739 C 370.995138 44.521739 356.173913 59.454046 356.173913 77.873981 L 356.173913 217.017061 L 356.173913 278.313701 C 356.173913 309.020369 331.47187 333.913043 300.521739 333.913043 C 287.993246 333.913043 276.431683 329.74206 267.130415 322.735031 Z M 244.869565 278.240102 C 235.531591 271.253059 223.913975 267.130435 211.322395 267.130435 L 122.590648 267.130435 C 109.9954 267.130435 98.379282 271.286657 89.043478 277.539795 L 89.043478 277.539795 L 89.043478 55.01591 C 89.043478 36.552698 103.864704 21.585308 122.434783 21.585308 C 140.876291 21.585308 155.826087 36.338793 155.826087 55.01591 L 155.826087 267.130435 L 166.956522 267.130435 L 178.086957 267.130435 L 178.086957 167.062012 C 178.086957 148.562243 192.908182 133.565217 211.478261 133.565217 C 229.919768 133.565217 244.869565 148.442502 244.869565 167.062012 L 244.869565 278.240102 L 244.869565 278.240102 Z M 300.521739 133.565217 C 318.963247 133.565217 333.913043 148.442502 333.913043 167.062012 L 333.913043 278.15538 C 333.913043 296.655149 319.091819 311.652174 300.521739 311.652174 C 282.080232 311.652174 267.130435 296.77489 267.130435 278.15538 L 267.130435 222.792119 L 267.130435 167.062012 C 267.130435 148.562243 281.951659 133.565217 300.521739 133.565217 Z M 445.217391 311.652174 L 66.782609 311.652174 L 66.782609 322.892099 C 66.782609 427.333507 151.49812 512.0 256.0 512.0 C 360.50188 512.0 445.217391 427.333507 445.217391 322.892099 L 445.217391 311.652174 Z M 422.956522 311.652174 L 89.043478 311.652174 L 89.043478 321.643217 C 89.043478 414.480028 163.792459 489.73913 256.0 489.73913 C 348.20754 489.73913 422.956522 414.480028 422.956522 321.643217 L 422.956522 311.652174 L 422.956522 311.652174 Z"/>
    </g>
  </g>
</svg>